PathFileType	4	(X/Y/Z)	C:\Users\Basilio\Documents\Thesis Gigler\squatting_fais\c3dfiles\041\SLS_pre_back1\markers_experimental.trc
DataRate	CameraRate	NumFrames	NumMarkers	Units	OrigDataRate	OrigDataStartFrame	OrigNumFrames
200.000000	200.000000	4	62	mm	200.000000	1086	1738
Frame#	Time	FHD			LBHD			RBHD			C7			T10			CLAV			LSHO			LUUPA			LMUPA			LDUPA			LLEP			LMEP			LRAD			LUL			LRFIN			RSHO			RUPA1			RMUPA			RDUPA			RLEP			RMEP			RRAD			RUL			RUFIN			LASI			RASI			USACR			LSACR			RSACR			LTHI1			LTHI2			LTHI3			LTHI4			LLFC			LMFC			LTIB1			LTIB2			LTIB3			LTIB4			LLMAL			LMMAL			LHEE			LMT1			LMT2			LMT5			RTHI			RTHI2			RTHI3			RTHI4			RLFC			RMFC			RTIB1			RTIB2			RTIB3			RTIB4			RLMAL			RMMAL			RHEE			RMT1			RMT2			RMT5			*61			
		X1	Y1	Z1	X2	Y2	Z2	X3	Y3	Z3	X4	Y4	Z4	X5	Y5	Z5	X6	Y6	Z6	X7	Y7	Z7	X8	Y8	Z8	X9	Y9	Z9	X10	Y10	Z10	X11	Y11	Z11	X12	Y12	Z12	X13	Y13	Z13	X14	Y14	Z14	X15	Y15	Z15	X16	Y16	Z16	X17	Y17	Z17	X18	Y18	Z18	X19	Y19	Z19	X20	Y20	Z20	X21	Y21	Z21	X22	Y22	Z22	X23	Y23	Z23	X24	Y24	Z24	X25	Y25	Z25	X26	Y26	Z26	X27	Y27	Z27	X28	Y28	Z28	X29	Y29	Z29	X30	Y30	Z30	X31	Y31	Z31	X32	Y32	Z32	X33	Y33	Z33	X34	Y34	Z34	X35	Y35	Z35	X36	Y36	Z36	X37	Y37	Z37	X38	Y38	Z38	X39	Y39	Z39	X40	Y40	Z40	X41	Y41	Z41	X42	Y42	Z42	X43	Y43	Z43	X44	Y44	Z44	X45	Y45	Z45	X46	Y46	Z46	X47	Y47	Z47	X48	Y48	Z48	X49	Y49	Z49	X50	Y50	Z50	X51	Y51	Z51	X52	Y52	Z52	X53	Y53	Z53	X54	Y54	Z54	X55	Y55	Z55	X56	Y56	Z56	X57	Y57	Z57	X58	Y58	Z58	X59	Y59	Z59	X60	Y60	Z60	X61	Y61	Z61	X62	Y62	Z62	

1087	5.43	-15.73486995697022	1434.222412109375	-1145.782104492188	-200.5568542480469	1377.8408203125	-1209.560913085938	-172.7640228271485	1389.35888671875	-1057.438232421875	-251.3709106445313	1283.279418945313	-1128.460815429688	-437.1731872558595	1046.016723632813	-1073.92529296875	nan	nan	nan	-184.3925323486328	1276.693603515625	-1251.45458984375	-84.67458343505861	1274.158935546875	-1374.951171875	-40.00357055664063	1273.399536132813	-1353.896362304688	-26.83573532104493	1272.11669921875	-1413.731567382813	17.17345428466797	1264.61376953125	-1431.707763671875	44.99739456176759	1183.860473632813	-1415.057006835938	nan	nan	nan	281.2963867187501	1277.208251953125	-1502.199951171875	356.4298400878907	1312.506469726563	-1434.755493164063	-150.802474975586	1286.45654296875	-1027.882568359375	0.7072947621345521	1278.444091796875	-928.0167236328127	15.99412345886231	1298.65185546875	-972.4170532226565	68.4801483154297	1294.280151367188	-943.7145996093752	113.2777328491211	1294.594482421875	-951.2103271484377	125.9370193481446	1211.015625	-968.7687988281252	366.2060241699219	1278.62255859375	-1049.835815429688	374.2700805664063	1302.127807617188	-977.800476074219	449.0247192382814	1294.814453125	-1065.128295898438	-356.1969909667969	820.792663574219	-1162.151489257813	-396.9894409179689	800.2786865234377	-942.9207763671877	-512.4839477539064	947.830993652344	-1065.710571289063	-534.8974609375001	931.7761230468752	-1097.31298828125	-543.8826293945314	928.023620605469	-1042.775756835938	-392.9773254394532	669.6463623046876	-1242.431396484375	-312.5207824707032	641.5320434570314	-1232.912841796875	-282.3707275390626	676.2921752929689	-1222.893676757813	-294.6821899414063	583.3934326171876	-1224.095336914063	-170.9235382080078	472.2274475097657	-1186.929443359375	-171.6290893554688	469.8736267089845	-1073.135620117188	-209.9503631591797	298.5845336914063	-1107.484375	-269.5090332031251	270.3493347167969	-1168.9013671875	-237.7203369140626	256.0111694335938	-1140.659423828125	-275.9002990722657	193.4441528320313	-1098.430297851563	-369.1824035644532	124.9549331665039	-1138.227905273438	-336.7199707031251	138.5616607666016	-1052.52294921875	-444.0705566406251	111.6547241210938	-1095.974609375	-240.9802246093751	62.3978843688965	-1050.822387695313	-230.0401763916016	55.2025718688965	-1093.545166015625	-272.0434875488282	40.05271148681641	-1153.08056640625	-550.6727905273439	559.9863891601564	-906.9135742187502	-518.1023559570314	502.0295715332032	-904.8138427734377	-484.9103393554689	500.1359863281251	-907.3882446289065	-550.6657714843751	427.369598388672	-930.0817871093752	-566.1036987304689	339.0727233886719	-939.8833007812502	-561.1533203125001	319.1874694824219	-1054.62158203125	-709.5223388671876	275.1994018554688	-966.9633789062502	-797.6983032226565	348.6257324218751	-956.232604980469	-792.3248291015627	301.7098999023438	-960.7877197265627	-833.9575805664065	274.9848632812501	-992.706970214844	-960.2458496093752	312.9389343261719	-987.047546386719	-926.3110351562502	294.4241638183594	-1064.245849609375	-1016.195068359375	356.5432434082032	-1040.099853515625	-935.121276855469	154.1012573242188	-1053.93359375	-935.7252197265627	147.1897277832032	-1001.228088378906	-979.2307739257815	176.4738311767578	-957.7386474609377	-4216.707031250001	853.1316528320315	-3944.676513671876	
1088	5.435	-15.72735214233399	1433.66357421875	-1145.571166992188	-200.3559875488282	1377.139038085938	-1209.480346679688	-172.400619506836	1388.683349609375	-1057.320190429688	-251.2728271484376	1282.619262695313	-1128.348754882813	-437.1826782226564	1045.411865234375	-1073.860229492188	nan	nan	nan	-184.377197265625	1276.074340820313	-1251.3447265625	-84.78921508789064	1273.548217773438	-1374.69384765625	-40.02128601074219	1272.84912109375	-1353.691772460938	-26.69725418090821	1271.500854492188	-1413.596557617188	17.1567668914795	1264.177734375	-1431.603149414063	45.02776336669923	1183.28759765625	-1415.11279296875	nan	nan	nan	281.3606567382813	1276.637451171875	-1502.121459960938	356.5227966308594	1311.74609375	-1434.623168945313	-150.6324157714844	1285.924438476563	-1027.775146484375	0.9179821610450747	1277.526123046875	-928.0037231445315	16.08751869201661	1297.750122070313	-972.4531860351565	68.55477905273439	1293.573364257813	-943.7202148437502	113.5146865844727	1293.77294921875	-951.139831542969	126.1420135498047	1210.495361328125	-969.0261840820315	365.8672180175782	1278.073120117188	-1049.813598632813	374.5340881347657	1301.3310546875	-977.8804931640627	449.2702636718751	1293.851928710938	-1065.218627929688	-356.4093017578126	820.2551879882815	-1162.160522460938	-397.0713806152345	799.6763305664065	-942.9001464843752	-512.5911254882814	947.4113769531252	-1065.609619140625	-535.0135498046876	931.235046386719	-1097.239013671875	-544.0267333984376	927.5794677734377	-1042.701538085938	-393.0065917968751	669.3055419921876	-1242.472290039063	-312.6171875000001	641.2528076171876	-1232.90869140625	-282.4383850097657	676.0621337890626	-1222.9150390625	-294.6709899902344	583.2758178710939	-1224.066772460938	-170.8619842529297	472.1282653808595	-1186.931762695313	-171.3954010009766	469.7233886718751	-1073.220092773438	-209.8156433105469	298.5447387695313	-1107.510009765625	-269.0545349121094	271.0770874023438	-1168.73974609375	-237.7130584716797	255.5189056396485	-1140.742919921875	-275.9182434082032	193.3858337402344	-1098.359985351563	-369.2051391601563	124.9480438232422	-1138.228515625	-336.7365112304688	138.4777526855469	-1052.3544921875	-444.0346679687501	111.5791168212891	-1095.885864257813	-241.0308380126954	62.37776184082033	-1050.872436523438	-230.0326232910157	55.13669204711915	-1093.61962890625	-272.0117492675782	40.09621047973634	-1153.0908203125	-550.5768432617189	559.3979492187501	-906.8769531250002	-517.9013671875001	501.7061157226564	-904.825134277344	-484.8372802734376	499.9813842773439	-906.8940429687502	-550.8690185546876	426.8981018066407	-930.022155761719	-566.1392822265626	338.4302673339844	-940.1125488281252	-561.1338500976564	318.6408081054688	-1054.856689453125	-709.6345825195314	274.3489990234376	-966.9523925781252	-797.7258300781252	348.1007080078126	-956.4611816406252	-792.321472167969	301.2689514160157	-961.0803833007815	-834.018005371094	274.4626770019532	-992.973815917969	-960.2775878906252	312.6291198730469	-987.3017578125002	-926.3848876953127	294.0865783691407	-1064.494262695313	-1016.137512207031	356.1157836914063	-1040.328125	-935.2170410156252	153.7540435791016	-1054.219970703125	-935.7639770507815	146.7957000732422	-1001.432922363281	-979.2984008789065	176.1654052734375	-958.0579833984377	-4216.694335937501	853.1091918945315	-3944.702392578126	
1089	5.44	-15.71868038177491	1432.784301757813	-1145.509033203125	-200.2033996582032	1376.561279296875	-1209.263671875	-172.2571411132813	1388.078735351563	-1057.250610351563	-251.1519165039063	1282.175415039063	-1128.27392578125	-437.1907348632814	1045.042602539063	-1073.68896484375	nan	nan	nan	-184.3289184570313	1275.491577148438	-1251.238403320313	-84.8810272216797	1273.048706054688	-1374.5390625	-40.43585586547852	1272.460327148438	-1353.534912109375	-26.60046195983887	1270.92529296875	-1413.421630859375	17.16862487792969	1263.586547851563	-1431.500854492188	44.91740036010743	1182.623657226563	-1414.995483398438	nan	nan	nan	281.3670349121094	1276.072387695313	-1502.0927734375	356.6276855468751	1311.040893554688	-1434.5595703125	-150.5118865966797	1285.303466796875	-1027.701904296875	1.109128713607788	1276.900024414063	-928.0251464843752	16.20377349853516	1297.17333984375	-972.4191894531252	68.74514007568361	1292.786987304688	-943.755065917969	113.6606674194336	1293.13037109375	-951.0836181640627	126.0725479125977	1209.614990234375	-968.8619384765627	366.0903625488282	1277.239379882813	-1049.837524414063	374.7177124023438	1300.488525390625	-978.009704589844	449.2773437500001	1293.046752929688	-1065.248413085938	-356.5830688476563	819.8325195312502	-1162.272827148438	-397.1431884765626	798.9698486328127	-943.036804199219	-512.7339477539064	946.9751586914065	-1065.524536132813	-535.0416870117189	930.7112426757815	-1097.1259765625	-544.0953369140626	927.032165527344	-1042.49365234375	-393.1643676757814	668.9277343750001	-1242.415771484375	-312.7457580566407	640.9188232421876	-1232.917846679688	-282.5506286621094	675.8277587890626	-1222.980346679688	-294.6518859863282	582.9890136718751	-1224.096801757813	-170.717529296875	471.973846435547	-1186.994506835938	-171.3788299560547	469.6367187500001	-1073.068359375	-209.7181396484376	298.4315490722657	-1107.484008789063	-269.2938842773438	269.9761352539063	-1168.83251953125	-237.5942535400391	255.8974151611329	-1140.615356445313	-275.8662109375001	193.3321838378907	-1098.3125	-369.1481018066407	124.9366149902344	-1138.192993164063	-336.7985229492188	138.5052490234375	-1052.271728515625	-444.0569458007814	111.6390609741211	-1095.939697265625	-240.9869689941407	62.3888397216797	-1050.85107421875	-230.0898742675782	55.215389251709	-1093.585205078125	-271.9881896972657	40.10099792480469	-1153.048950195313	-550.7675781250001	558.8014526367189	-906.877624511719	-517.6885375976564	500.818084716797	-904.6877441406252	-484.7456359863282	499.3424072265626	-907.139831542969	-550.5197753906251	426.1865844726564	-930.3187255859377	-566.0739746093751	337.6921081542969	-940.4741821289065	-561.1515502929689	318.2117919921876	-1055.025146484375	-709.6187133789064	273.4639892578126	-967.2137451171877	-797.7800903320315	347.5856323242188	-956.7688598632815	-792.319030761719	300.7621154785157	-961.3713378906252	-834.1306762695315	274.0246582031251	-993.1851196289065	-960.2399902343752	312.3207702636719	-987.6519165039065	-926.4633789062502	293.8107299804688	-1064.8037109375	-1016.149780273438	355.8503723144532	-1040.689575195313	-935.3718872070315	153.5900573730469	-1054.419311523438	-935.811462402344	146.5736694335938	-1001.655334472656	-979.2993774414065	175.8349914550782	-958.1929931640627	-4216.946777343751	853.1094970703127	-3944.700683593751	
1090	5.445	-15.44119739532471	1432.074951171875	-1145.4873046875	-200.0256042480469	1376.010375976563	-1209.151733398438	-171.9410400390625	1387.324340820313	-1057.131103515625	-250.8185119628907	1281.497924804688	-1128.05859375	-437.2785644531251	1044.611694335938	-1073.620727539063	nan	nan	nan	-184.2576293945313	1274.808715820313	-1251.082153320313	-84.77808380126955	1272.548217773438	-1374.391967773438	-40.4366683959961	1271.85693359375	-1353.305908203125	-26.5655632019043	1270.571655273438	-1413.305297851563	17.07422828674317	1263.015502929688	-1431.371948242188	44.57691192626954	1182.305908203125	-1415.15380859375	nan	nan	nan	281.3555908203126	1275.605102539063	-1502.019775390625	356.6615905761719	1310.47509765625	-1434.474975585938	-150.3920440673828	1284.516723632813	-1027.584228515625	1.27802038192749	1276.17333984375	-928.0059204101565	16.57635116577149	1296.548583984375	-972.4415283203127	68.7070770263672	1291.92138671875	-943.6577758789065	113.5309677124024	1292.285400390625	-951.1561279296877	126.3849487304688	1208.705200195313	-968.8711547851565	366.1169128417969	1276.44970703125	-1049.789184570313	374.8597717285157	1299.694580078125	-977.9702758789065	449.2581481933595	1292.264526367188	-1065.286865234375	-356.6207885742188	819.6323242187502	-1162.338012695313	-397.1709289550782	798.4212036132815	-943.137145996094	-512.8590087890626	946.4470825195315	-1065.41552734375	-535.2022094726564	930.303405761719	-1096.962524414063	-544.1913452148439	926.4500732421877	-1042.451049804688	-393.2277832031251	668.5538940429689	-1242.417236328125	-312.8123474121094	640.6539306640626	-1232.879638671875	-282.2572937011719	675.4301757812501	-1222.98193359375	-294.7233581542969	582.7338256835939	-1224.188842773438	-170.6369018554688	471.8720703125001	-1186.99755859375	-171.26513671875	469.619354248047	-1073.068481445313	-209.6972656250001	298.3905334472657	-1107.510620117188	-269.1805419921876	269.8877258300782	-1168.688720703125	-237.5611572265626	255.9023742675782	-1140.519653320313	-275.8748168945313	193.3063964843751	-1098.285766601563	-369.1140136718751	124.8970794677735	-1138.142456054688	-336.8013000488282	138.4725799560547	-1052.226684570313	-444.0252685546876	111.5438537597657	-1095.808715820313	-241.0205383300782	62.34229660034181	-1050.887573242188	-230.0762023925782	55.18156051635744	-1093.57275390625	-272.0338745117188	40.12137603759766	-1153.06103515625	-550.6784057617189	558.1506958007814	-906.983093261719	-517.8006591796876	500.3147277832032	-904.7429809570315	-484.7970275878907	498.6332092285157	-906.8923950195315	-550.4891967773439	425.4748535156251	-930.5607910156252	-566.1115112304689	337.2252502441407	-940.739196777344	-561.2443847656251	317.7961730957032	-1055.189086914063	-709.4753417968751	272.9520874023438	-968.2810058593752	-797.7984619140627	347.0996093750001	-956.9633789062502	-792.2224731445315	300.1174621582032	-961.7656250000002	-834.0064697265627	273.5347900390626	-993.568054199219	-960.1917724609377	311.8473205566407	-987.943786621094	-926.4311523437502	293.3759155273438	-1065.05712890625	-1016.188720703125	355.5342102050782	-1041.047241210938	-935.2102050781252	152.9491119384766	-1054.690185546875	-935.733093261719	146.1622161865235	-1001.884887695313	-979.2327880859377	175.4056701660157	-958.3753051757815	-4216.703125000001	853.188659667969	-3944.687500000001	
